<svg width="300" height="280" viewBox="0 0 300 280" fill="none" xmlns="http://www.w3.org/2000/svg">
<g opacity="0.85" filter="url(#filter0_f)">
<circle cx="151" cy="140" r="55" fill="#FBFFA3" fill-opacity="0.6"/>
</g>
<path d="M165.704 172.827L165.704 172.827L211.252 161.886C213.355 160.28 216.266 160.312 218.333 161.962C220.402 163.613 221.077 166.446 219.977 168.851C214.226 181.425 205.059 192.085 193.467 199.681C181.564 207.48 167.722 211.602 153.434 211.602C113.106 211.602 80.2955 178.792 80.2955 138.463C80.2955 124.175 84.4176 110.332 92.2164 98.4309L91.7982 98.1569L92.2164 98.4309C99.8122 86.8388 110.473 77.6719 123.046 71.922L123.046 71.9219C125.45 70.8215 128.283 71.4953 129.935 73.5645L129.935 73.5645C131.586 75.6324 131.617 78.5438 130.011 80.6462L130.396 80.94L130.011 80.6462C122.243 90.8156 118.136 102.972 118.136 115.796C118.136 140.849 134.133 162.973 157.94 170.848L158.097 170.373L157.94 170.848C158.978 171.191 159.542 172.311 159.199 173.35C158.855 174.387 157.736 174.95 156.697 174.608C144.434 170.551 133.884 162.876 126.186 152.408C118.329 141.724 114.176 129.064 114.176 115.795C114.176 102.093 118.563 89.1092 126.864 78.2422C127.365 77.5871 127.353 76.6786 126.84 76.0351L126.84 76.035C126.326 75.391 125.444 75.1793 124.694 75.5226C112.799 80.9625 102.715 89.6347 95.5289 100.602C88.1539 111.857 84.2558 124.95 84.2558 138.463C84.2558 176.609 115.289 207.642 153.434 207.642C166.947 207.642 180.04 203.743 191.296 196.369L191.022 195.95L191.296 196.369C202.262 189.183 210.935 179.098 216.375 167.204L216.375 167.204C216.717 166.455 216.507 165.571 215.863 165.057L215.863 165.056C215.218 164.543 214.31 164.533 213.655 165.033C202.789 173.334 189.806 177.721 176.102 177.721C172.375 177.721 168.639 177.385 164.996 176.723L164.996 176.723C163.92 176.528 163.207 175.497 163.402 174.421L163.402 174.421C163.598 173.345 164.628 172.631 165.704 172.827Z" stroke="#5D497A"/>
<path d="M160.74 108.039L160.32 107.387L159.9 108.039C158.73 109.852 157.183 111.399 155.369 112.569L154.718 112.989L155.369 113.409C157.183 114.58 158.73 116.126 159.9 117.94L160.32 118.591L160.74 117.94C161.91 116.126 163.457 114.579 165.27 113.41L165.922 112.989L165.271 112.569C163.457 111.399 161.91 109.852 160.74 108.039ZM158.34 126.097C158.34 119.961 153.348 114.969 147.213 114.969C146.119 114.969 145.233 114.083 145.233 112.989C145.233 111.896 146.119 111.009 147.213 111.009C153.348 111.009 158.34 106.018 158.34 99.8819C158.34 98.7884 159.227 97.9019 160.32 97.9019C161.413 97.9019 162.3 98.7884 162.3 99.8819C162.3 106.018 167.291 111.009 173.427 111.009C174.521 111.009 175.407 111.896 175.407 112.989C175.407 114.083 174.521 114.969 173.427 114.969C167.291 114.969 162.3 119.961 162.3 126.097C162.3 127.19 161.413 128.077 160.32 128.077C159.227 128.077 158.34 127.19 158.34 126.097Z" stroke="#5D497A"/>
<path d="M182.316 146.861C186.294 146.861 189.531 143.624 189.531 139.646C189.531 135.668 186.294 132.431 182.316 132.431C178.337 132.431 175.1 135.668 175.1 139.646L182.316 146.861ZM182.316 146.861C178.338 146.861 175.101 143.624 175.1 139.646L182.316 146.861ZM179.061 139.646V139.646C179.061 141.442 180.52 142.901 182.316 142.901C184.111 142.901 185.571 141.441 185.571 139.646C185.571 137.851 184.111 136.391 182.316 136.391C180.52 136.391 179.061 137.851 179.061 139.646Z" stroke="#5D497A"/>
<path d="M80.2405 200.409C80.2405 196.431 83.4777 193.194 87.4558 193.194C91.434 193.194 94.6711 196.431 94.6711 200.409C94.6711 204.387 91.434 207.625 87.4558 207.625C83.4777 207.625 80.2405 204.387 80.2405 200.409ZM84.2008 200.409C84.2008 202.205 85.6606 203.664 87.4558 203.664C89.2514 203.664 90.7108 202.205 90.7108 200.409C90.7108 198.614 89.2511 197.154 87.4558 197.154C85.6607 197.154 84.2008 198.613 84.2008 200.409Z" stroke="#5D497A"/>
<path d="M162.929 142.757C162.929 144.198 161.761 145.367 160.32 145.367C158.879 145.367 157.71 144.198 157.71 142.757C157.71 141.316 158.879 140.148 160.32 140.148C161.761 140.148 162.929 141.316 162.929 142.757Z" stroke="#5D497A"/>
<path d="M81.7186 180.092C81.7186 181.533 80.5504 182.701 79.1093 182.701C77.6682 182.701 76.5 181.533 76.5 180.092C76.5 178.651 77.6682 177.483 79.1093 177.483C80.5504 177.483 81.7186 178.651 81.7186 180.092Z" stroke="#5D497A"/>
<path d="M182.869 94.6964C182.869 96.1375 181.701 97.3057 180.26 97.3057C178.818 97.3057 177.65 96.1375 177.65 94.6964C177.65 93.2554 178.818 92.0872 180.26 92.0872C181.701 92.0872 182.869 93.2554 182.869 94.6964Z" stroke="#5D497A"/>
<path d="M222.645 158.571C220.399 156.778 217.234 156.744 214.948 158.489C204.867 166.19 192.818 170.261 180.102 170.261C176.642 170.261 173.174 169.949 169.793 169.335C168.445 169.089 167.155 169.984 166.91 171.332C166.665 172.679 167.559 173.971 168.907 174.215C172.579 174.883 176.346 175.221 180.102 175.221C193.915 175.221 207.006 170.798 217.958 162.431C218.431 162.069 219.086 162.077 219.551 162.447C220.016 162.818 220.167 163.455 219.92 163.996C214.519 175.804 205.91 185.816 195.022 192.95C183.848 200.271 170.85 204.142 157.434 204.142C119.565 204.142 88.7558 173.333 88.7558 135.463C88.7558 122.046 92.6257 109.049 99.9471 97.8756C107.081 86.9873 117.093 78.3779 128.902 72.9773C129.443 72.7297 130.078 72.8818 130.449 73.3468C130.82 73.8116 130.828 74.4663 130.466 74.9387C122.099 85.893 117.676 98.9835 117.676 112.795C117.676 126.171 121.863 138.934 129.784 149.705C137.543 160.255 148.178 167.993 160.54 172.082C161.841 172.512 163.243 171.807 163.673 170.507C164.103 169.206 163.398 167.803 162.097 167.373C138.494 159.566 122.636 137.633 122.636 112.796C122.636 100.081 126.707 88.0318 134.408 77.9497C136.154 75.6649 136.12 72.4998 134.326 70.2526C132.531 68.0039 129.45 67.2713 126.838 68.4673C114.179 74.2565 103.446 83.4861 95.7982 95.1569C87.9458 107.14 83.7955 121.078 83.7955 135.463C83.7955 176.068 116.83 209.102 157.434 209.102C171.819 209.102 185.757 204.952 197.741 197.099C209.411 189.452 218.641 178.719 224.431 166.059C225.627 163.445 224.893 160.366 222.645 158.571Z" fill="#FBFFA3"/>
<path d="M151.213 112.469C157.072 112.469 161.84 117.237 161.84 123.097C161.84 124.466 162.95 125.577 164.32 125.577C165.69 125.577 166.8 124.466 166.8 123.097C166.8 117.237 171.568 112.469 177.427 112.469C178.797 112.469 179.907 111.359 179.907 109.989C179.907 108.62 178.797 107.509 177.427 107.509C171.568 107.509 166.8 102.742 166.8 96.8819C166.8 95.5123 165.69 94.4019 164.32 94.4019C162.95 94.4019 161.84 95.5123 161.84 96.8819C161.84 102.742 157.072 107.509 151.213 107.509C149.843 107.509 148.733 108.62 148.733 109.989C148.733 111.359 149.843 112.469 151.213 112.469ZM164.32 105.31C165.528 107.183 167.126 108.781 168.999 109.989C167.126 111.198 165.529 112.796 164.32 114.669C163.112 112.796 161.514 111.198 159.64 109.989C161.514 108.781 163.112 107.183 164.32 105.31Z" fill="#FBFFA3"/>
<path d="M186.316 144.361C190.57 144.361 194.031 140.9 194.031 136.646C194.031 132.392 190.57 128.931 186.316 128.931C182.061 128.931 178.6 132.392 178.6 136.646C178.601 140.9 182.062 144.361 186.316 144.361ZM186.316 133.891C187.835 133.891 189.071 135.127 189.071 136.646C189.071 138.165 187.835 139.401 186.316 139.401C184.796 139.401 183.561 138.166 183.561 136.646C183.561 135.127 184.796 133.891 186.316 133.891Z" fill="#FBFFA3"/>
<path d="M91.4558 189.694C87.2016 189.694 83.7405 193.155 83.7405 197.409C83.7405 201.664 87.2016 205.125 91.4558 205.125C95.7101 205.125 99.1711 201.664 99.1711 197.409C99.1711 193.155 95.7101 189.694 91.4558 189.694ZM91.4558 200.164C89.9367 200.164 88.7008 198.928 88.7008 197.409C88.7008 195.89 89.9367 194.654 91.4558 194.654C92.9749 194.654 94.2108 195.89 94.2108 197.409C94.2108 198.928 92.9752 200.164 91.4558 200.164Z" fill="#FBFFA3"/>
<path d="M164.32 142.867C166.037 142.867 167.429 141.475 167.429 139.757C167.429 138.04 166.037 136.648 164.32 136.648C162.603 136.648 161.21 138.04 161.21 139.757C161.21 141.475 162.603 142.867 164.32 142.867Z" fill="#FBFFA3"/>
<path d="M83.1093 180.201C84.8265 180.201 86.2186 178.809 86.2186 177.092C86.2186 175.375 84.8265 173.983 83.1093 173.983C81.3921 173.983 80 175.375 80 177.092C80 178.809 81.3921 180.201 83.1093 180.201Z" fill="#FBFFA3"/>
<path d="M184.26 94.8057C185.977 94.8057 187.369 93.4137 187.369 91.6964C187.369 89.9792 185.977 88.5872 184.26 88.5872C182.542 88.5872 181.15 89.9792 181.15 91.6964C181.15 93.4137 182.542 94.8057 184.26 94.8057Z" fill="#FBFFA3"/>
<defs>
<filter id="filter0_f" x="46" y="35" width="210" height="210" filterUnits="userSpaceOnUse" color-interpolation-filters="sRGB">
<feFlood flood-opacity="0" result="BackgroundImageFix"/>
<feBlend mode="normal" in="SourceGraphic" in2="BackgroundImageFix" result="shape"/>
<feGaussianBlur stdDeviation="25" result="effect1_foregroundBlur"/>
</filter>
</defs>
</svg>
