<svg width="135" height="35" viewBox="0 0 135 35" fill="none" xmlns="http://www.w3.org/2000/svg">
<path d="M81.574 14.5249C73.9935 23.9681 67.2974 18.5927 64.897 14.7246" stroke="#1D2B5E" stroke-width="2.25"/>
<line y1="-1.125" x2="6.6363" y2="-1.125" transform="matrix(-0.485043 0.87449 -0.857126 -0.515108 66.2189 17.6439)" stroke="#1D2B5E" stroke-width="2.25"/>
<line y1="-1.125" x2="6.6363" y2="-1.125" transform="matrix(-0.485043 -0.87449 0.857126 -0.515108 83 23.4398)" stroke="#1D2B5E" stroke-width="2.25"/>
<line x1="73.0665" y1="26" x2="73.0665" y2="19.2988" stroke="#1D2B5E" stroke-width="2.25"/>
<path d="M7.94 26.27C7.02 26.27 6.14 26.11 5.3 25.79C4.48 25.47 3.81 25 3.29 24.38L4.49 22.76C4.99 23.24 5.51 23.61 6.05 23.87C6.61 24.13 7.16 24.26 7.7 24.26C8.36 24.26 8.9 24.13 9.32 23.87C9.74 23.61 9.95 23.21 9.95 22.67C9.95 22.25 9.82 21.91 9.56 21.65C9.3 21.39 9 21.2 8.66 21.08C8.34 20.96 7.79 20.78 7.01 20.54C4.89 19.86 3.83 18.65 3.83 16.91C3.83 15.87 4.21 14.98 4.97 14.24C5.75 13.5 6.83 13.13 8.21 13.13C9.09 13.13 9.87 13.24 10.55 13.46C11.23 13.68 11.86 14.03 12.44 14.51L11.33 16.22C11.01 15.88 10.6 15.61 10.1 15.41C9.62 15.21 9.16 15.1 8.72 15.08C8.16 15.08 7.68 15.22 7.28 15.5C6.88 15.76 6.68 16.12 6.68 16.58C6.68 16.96 6.81 17.28 7.07 17.54C7.33 17.78 7.6 17.96 7.88 18.08C8.16 18.18 8.71 18.36 9.53 18.62C10.55 18.96 11.34 19.4 11.9 19.94C12.48 20.48 12.77 21.21 12.77 22.13C12.77 23.33 12.35 24.32 11.51 25.1C10.67 25.88 9.48 26.27 7.94 26.27ZM24.3861 13.1C25.5461 13.1 26.5061 13.45 27.2661 14.15C28.0261 14.83 28.4161 15.72 28.4361 16.82V26H25.6161V17.78C25.5761 17.08 25.3661 16.53 24.9861 16.13C24.6061 15.73 24.0361 15.52 23.2761 15.5C22.5561 15.5 21.9061 15.7 21.3261 16.1C20.7461 16.5 20.2861 17.06 19.9461 17.78C19.6261 18.5 19.4661 19.3 19.4661 20.18V26H16.6761V2.75H19.4061V15.83C19.8661 15.01 20.5261 14.35 21.3861 13.85C22.2661 13.35 23.2661 13.1 24.3861 13.1ZM44.8081 13.58V26H42.2881L42.1081 23.63C41.6881 24.47 41.0381 25.16 40.1581 25.7C39.2781 26.22 38.2981 26.48 37.2181 26.48C36.0781 26.48 35.1381 26.14 34.3981 25.46C33.6781 24.76 33.2981 23.86 33.2581 22.76V13.58H36.0481V21.77C36.0881 22.47 36.2881 23.03 36.6481 23.45C37.0281 23.85 37.5881 24.06 38.3281 24.08C39.0081 24.08 39.6281 23.88 40.1881 23.48C40.7481 23.06 41.1881 22.49 41.5081 21.77C41.8481 21.05 42.0181 20.25 42.0181 19.37V13.58H44.8081ZM53.6844 8.12V13.61H57.0744V15.83H53.6844V26H50.8644V15.83H48.5844V13.61H50.8644V8.12H53.6844ZM94.7715 23.9C95.8115 23.9 96.8215 23.54 97.8015 22.82L99.0915 24.89C98.4315 25.33 97.7115 25.68 96.9315 25.94C96.1715 26.18 95.4315 26.3 94.7115 26.3C93.3315 26.3 92.1215 26.02 91.0815 25.46C90.0615 24.88 89.2715 24.09 88.7115 23.09C88.1515 22.09 87.8715 20.96 87.8715 19.7C87.8715 18.48 88.1715 17.37 88.7715 16.37C89.3915 15.35 90.2315 14.55 91.2915 13.97C92.3515 13.37 93.5115 13.07 94.7715 13.07C96.3915 13.07 97.7415 13.55 98.8215 14.51C99.9215 15.45 100.671 16.77 101.071 18.47L91.2315 21.92C91.5915 22.54 92.0715 23.03 92.6715 23.39C93.2915 23.73 93.9915 23.9 94.7715 23.9ZM94.5615 15.29C93.4215 15.29 92.4815 15.69 91.7415 16.49C91.0015 17.29 90.6315 18.31 90.6315 19.55C90.6315 19.85 90.6415 20.08 90.6615 20.24L97.8915 17.57C97.5915 16.89 97.1615 16.34 96.6015 15.92C96.0615 15.5 95.3815 15.29 94.5615 15.29ZM116.357 13.58L108.347 31.97H105.587L108.437 25.58L102.677 13.58H105.827L109.847 22.43L113.777 13.58H116.357ZM124.889 23.9C125.929 23.9 126.939 23.54 127.919 22.82L129.209 24.89C128.549 25.33 127.829 25.68 127.049 25.94C126.289 26.18 125.549 26.3 124.829 26.3C123.449 26.3 122.239 26.02 121.199 25.46C120.179 24.88 119.389 24.09 118.829 23.09C118.269 22.09 117.989 20.96 117.989 19.7C117.989 18.48 118.289 17.37 118.889 16.37C119.509 15.35 120.349 14.55 121.409 13.97C122.469 13.37 123.629 13.07 124.889 13.07C126.509 13.07 127.859 13.55 128.939 14.51C130.039 15.45 130.789 16.77 131.189 18.47L121.349 21.92C121.709 22.54 122.189 23.03 122.789 23.39C123.409 23.73 124.109 23.9 124.889 23.9ZM124.679 15.29C123.539 15.29 122.599 15.69 121.859 16.49C121.119 17.29 120.749 18.31 120.749 19.55C120.749 19.85 120.759 20.08 120.779 20.24L128.009 17.57C127.709 16.89 127.279 16.34 126.719 15.92C126.179 15.5 125.499 15.29 124.679 15.29Z" fill="black"/>
</svg>
