<svg width="200" height="75" viewBox="0 0 200 75" fill="none" xmlns="http://www.w3.org/2000/svg">
<path fill-rule="evenodd" clip-rule="evenodd" d="M102.997 69H28.0033C28.2709 48.5198 44.9563 32 65.5 32C86.0438 32 102.729 48.5198 102.997 69Z" fill="#FBFFA3" fill-opacity="0.6"/>
<line y1="66.5" x2="200" y2="66.5" stroke="#225082" stroke-width="5"/>
<line x1="109.75" y1="48.8349" x2="127.071" y2="38.8349" stroke="#F4A03C" stroke-width="5"/>
<line x1="4.25" y1="38.8349" x2="21.5705" y2="48.8349" stroke="#F4A03C" stroke-width="5"/>
<line x1="89.2552" y1="29.8072" x2="99.2552" y2="12.4867" stroke="#F4A03C" stroke-width="5"/>
<line x1="28.5853" y1="12.4867" x2="38.5853" y2="29.8072" stroke="#F4A03C" stroke-width="5"/>
<line x1="63.5" y1="24" x2="63.5" y2="4" stroke="#F4A03C" stroke-width="5"/>
<path d="M166.768 17.2322C165.791 16.2559 164.209 16.2559 163.232 17.2322L147.322 33.1421C146.346 34.1184 146.346 35.7014 147.322 36.6777C148.299 37.654 149.882 37.654 150.858 36.6777L165 22.5355L179.142 36.6777C180.118 37.654 181.701 37.654 182.678 36.6777C183.654 35.7014 183.654 34.1184 182.678 33.1421L166.768 17.2322ZM167.5 53V19H162.5V53H167.5Z" fill="#67C29E"/>
</svg>
