<svg width="200" height="75" viewBox="0 0 200 75" fill="none" xmlns="http://www.w3.org/2000/svg">
<path fill-rule="evenodd" clip-rule="evenodd" d="M102.997 69H28.0033C28.2709 48.5198 44.9563 32 65.5 32C86.0438 32 102.729 48.5198 102.997 69Z" fill="#FBFFA3" fill-opacity="0.6"/>
<line y1="66.5" x2="200" y2="66.5" stroke="#225082" stroke-width="5"/>
<line x1="109.75" y1="48.8349" x2="127.071" y2="38.8349" stroke="#F4A03C" stroke-width="5"/>
<line x1="4.25" y1="38.8349" x2="21.5705" y2="48.8349" stroke="#F4A03C" stroke-width="5"/>
<line x1="89.2552" y1="29.8072" x2="99.2552" y2="12.4867" stroke="#F4A03C" stroke-width="5"/>
<line x1="28.5853" y1="12.4867" x2="38.5853" y2="29.8072" stroke="#F4A03C" stroke-width="5"/>
<line x1="63.5" y1="24" x2="63.5" y2="4" stroke="#F4A03C" stroke-width="5"/>
<path d="M163.232 51.7678C164.209 52.7441 165.791 52.7441 166.768 51.7678L182.678 35.8579C183.654 34.8816 183.654 33.2986 182.678 32.3223C181.701 31.346 180.118 31.346 179.142 32.3223L165 46.4645L150.858 32.3223C149.882 31.346 148.299 31.346 147.322 32.3223C146.346 33.2986 146.346 34.8816 147.322 35.8579L163.232 51.7678ZM162.5 16V50H167.5V16H162.5Z" fill="#67C29E"/>
</svg>
